<?xml version="1.0" encoding="UTF-8" standalone="no"?>
<!-- Created with Inkscape (http://www.inkscape.org/) -->

<svg
   xmlns:dc="http://purl.org/dc/elements/1.1/"
   xmlns:cc="http://creativecommons.org/ns#"
   xmlns:rdf="http://www.w3.org/1999/02/22-rdf-syntax-ns#"
   xmlns:svg="http://www.w3.org/2000/svg"
   xmlns="http://www.w3.org/2000/svg"
   xmlns:sodipodi="http://sodipodi.sourceforge.net/DTD/sodipodi-0.dtd"
   xmlns:inkscape="http://www.inkscape.org/namespaces/inkscape"
   width="934.13"
   height="934.13"
   id="svg2"
   version="1.1"
   inkscape:version="0.48.4 r9939"
   sodipodi:docname="bath.svg">
  <defs
     id="defs4" />
  <sodipodi:namedview
     id="base"
     pagecolor="#ffffff"
     bordercolor="#666666"
     borderopacity="1.0"
     inkscape:pageopacity="0.0"
     inkscape:pageshadow="2"
     inkscape:zoom="0.58727374"
     inkscape:cx="628.69951"
     inkscape:cy="401.61801"
     inkscape:document-units="px"
     inkscape:current-layer="layer1"
     showgrid="true"
     inkscape:snap-global="true"
     inkscape:object-paths="true"
     inkscape:snap-grids="true"
     inkscape:window-width="1920"
     inkscape:window-height="1021"
     inkscape:window-x="0"
     inkscape:window-y="27"
     inkscape:window-maximized="1"
     fit-margin-top="0"
     fit-margin-left="0"
     fit-margin-right="0"
     fit-margin-bottom="0">
    <inkscape:grid
       type="xygrid"
       id="grid2985"
       empspacing="5"
       visible="true"
       enabled="true"
       snapvisiblegridlinesonly="true"
       originx="395.80669px"
       originy="-212.68743px" />
  </sodipodi:namedview>
  <metadata
     id="metadata7">
    <rdf:RDF>
      <cc:Work
         rdf:about="">
        <dc:format>image/svg+xml</dc:format>
        <dc:type
           rdf:resource="http://purl.org/dc/dcmitype/StillImage" />
        <dc:title />
      </cc:Work>
    </rdf:RDF>
  </metadata>
  <g
     inkscape:label="Calque 1"
     inkscape:groupmode="layer"
     id="layer1"
     transform="translate(395.80669,94.455293)">
    <path
       style="fill:#000000"
       d="M -1.6248532,839.65438 C -124.59955,828.17681 -255.09829,793.80163 -343.47409,702.33032 c -42.32549,-45.13784 -63.36937,-110.59576 -46.51138,-171.2723 16.72303,-62.24661 56.79543,-120.04282 113.52756,-151.59509 56.87871,-15.26264 34.24016,47.65783 4.83427,66.63126 -48.31095,54.38533 -59.33738,146.20239 -5.34009,200.66792 42.09295,47.81158 104.78323,71.45901 164.43312,89.07747 85.514577,24.15994 175.329977,15.94414 263,14.78394 99.42395,-8.51228 204.86968,-37.52399 275.4516,-112.04157 39.2036,-46.12031 43.14057,-115.73916 10.63454,-166.61729 -9.51596,-32.36318 -91.1968,-83.52839 -33.2259,-104.21967 48.36957,10.87753 84.21921,53.96849 106.78818,95.95491 42.40657,72.21084 38.71189,172.74359 -22.821,233.28605 -80.57429,81.90069 -195.00991,120.72026 -306.32742,137.69065 -60.56414,7.07061 -121.748983,4.36448 -182.5942432,4.97778 z M 44.969387,631.31915 C 6.8684968,607.61337 37.630194,575.9884 43.815097,519.17529 50,462.36218 50.296507,389.62399 26.039827,329.32463 -1.7197332,252.21831 -35.562253,170.30331 -13.961183,87.05802 2.6973368,34.089097 19.389395,-26.212016 63.780577,-60.207344 c 44.391183,-33.995328 17.55233,34.135989 14.05322,81.492785 -3.49911,47.356796 -3.84531,141.379459 23.462533,206.894039 23.6488,73.34084 57.28191,150.80831 34.85517,228.9077 -13.37755,57.61014 -38.395663,112.54213 -69.000583,162.91537 -5.04356,6.63849 -13.36621,12.66148 -22.18153,11.3166 z M -151.18554,606.08156 c -29.02631,-29.31306 10.06762,-70.39231 9.21982,-105.52354 3.11108,-53.39167 11.14782,-111.68137 -16.94486,-160.20321 -36.53725,-72.30707 -69.8245,-158.85366 -36.72266,-238.657 18.46315,-34.73959 27.14456,-74.853111 66.3889,-102.09436908 C -90,-27.637817 -123.76202,46.193945 -129.14884,109.05802 c -5.38682,62.86407 45.889147,166.7368 68.405067,249.82347 22.2385,83.05025 -12.202,170.34773 -62.576977,235.91603 -6.73716,7.67488 -16.94514,16.01707 -27.8648,11.28404 z m 393.98243,-0.19218 c -30.9069,-38.93644 -4.49251,-93.13552 6.3553,-138.33136 C 260,422.36218 247.03666,363.57954 222.14874,317.61907 197.95266,267.51103 178.68838,213.27269 183.97855,156.74843 179.60309,112.35408 205.8677,72.109459 228.46939,36.523781 c 17.35088,-27.3184372 62.04843,-61.264299 53.7512,-10.96616 -21.76179,67.349659 -34.20433,142.874389 -4.8129,210.000009 21.6152,61.11162 63.26955,118.73986 55.55696,186.585 3.68917,62.23676 -31.47605,117.60923 -61.84728,169.06142 -5.46725,10.05428 -16.29674,18.25724 -28.32048,14.68533 z"
       id="path3859"
       inkscape:connector-curvature="0"
       sodipodi:nodetypes="cccccccccccccccczcczzcccccccczzccccczccsccccc" />
  </g>
</svg>
