<?xml version="1.0" encoding="utf-8"?>
<!-- Generated by IcoMoon.io -->
<!DOCTYPE svg PUBLIC "-//W3C//DTD SVG 1.1//EN" "http://www.w3.org/Graphics/SVG/1.1/DTD/svg11.dtd">
<svg version="1.1" xmlns="http://www.w3.org/2000/svg" xmlns:xlink="http://www.w3.org/1999/xlink" width="1024" height="1024" viewBox="0 0 1024 1024">
	<path d="M961 463q-6 12-17 16t-21-3l-101-68-50 29v150l50 29 101-68q10-7 21-3t17 16 3 25-13 20l-68 46 50 29q23 13 29.5 38.5t-6.5 48.5-38.5 30-48.5-7l-32-19v60q0 13-9.5 22.5t-23 9.5-22.5-9.5-9-22.5v-97l-70-40-123 69v89l81 47q11 7 14.5 20t-3 24-19 14.5-23.5-2.5l-50-30v34q0 26-18.5 45t-45 19-45.5-19-19-45v-34l-49 30q-11 6-23.5 2.5t-19-14.5-3-24 14.5-20l80-47v-89l-122-69-70 40v97q0 13-9 22.5t-22.5 9.5-23-9.5-9.5-22.5v-60l-32 19q-23 14-48.5 7t-38.5-30-6.5-48.5 29.5-38.5l50-29-68-46q-10-7-13-20t3-25 17-16 21 3l101 68 50-29v-150l-50-29-101 68q-10 7-21 3t-17-16-3-25 13-20l68-46-50-29q-23-13-29.5-38.5t6.5-48.5 38.5-30 48.5 7l32 19v-60q0-13 9.5-22.5t23-9.5 22.5 9.5 9 22.5v97l70 40 122-69v-89l-80-47q-11-7-14.5-20t3-24 19-14.5 23.5 2.5l49 30v-34q0-26 19-45t45.5-19 45 19 18.5 45v34l50-30q11-6 23.5-2.5t19 15 3 24-14.5 19.5l-81 47v89l123 69 70-40v-97q0-13 9-22.5t22.5-9.5 23 9.5 9.5 22.5v60l32-19q23-14 48.5-7t38.5 30 6.5 48.5-29.5 38.5l-50 29 68 46q10 7 13 20t-3 25zM644 448l-128-64-127 64v128l127 64 128-64v-128z" />
</svg>
